<?xml version="1.0" standalone="no"?>
 <!DOCTYPE svg PUBLIC "-//W3C//DTD SVG 1.1//EN" 
 "http://www.w3.org/Graphics/SVG/1.1/DTD/svg11.dtd"> 
<svg
  xmlns:svg="http://www.w3.org/2000/svg"
  xmlns="http://www.w3.org/2000/svg"
  xmlns:xlink="http://www.w3.org/1999/xlink"
  version="1.1"
  width="29.700220cm" height="21.000720cm" viewBox="0 0 116930 82680">
<title>SVG Picture created as esp8266-single-sensor.svg date 2021/08/26 21:58:51 </title>
  <desc>Picture generated by Eeschema-SVG </desc>
<g style="fill:#000000; fill-opacity:1;stroke:#000000; stroke-opacity:1;
stroke-linecap:round; stroke-linejoin:round;"
 transform="translate(0 0) scale(1 1)">
</g>
<g style="fill:#000000; fill-opacity:0.0; 
stroke:#000000; stroke-width:-10; stroke-opacity:1; 
stroke-linecap:round; stroke-linejoin:round;">
</g>
<g style="fill:#840000; fill-opacity:0.0; 
stroke:#840000; stroke-width:-10; stroke-opacity:1; 
stroke-linecap:round; stroke-linejoin:round;">
</g>
<g style="fill:#840000; fill-opacity:0.0; 
stroke:#840000; stroke-width:100; stroke-opacity:1; 
stroke-linecap:round; stroke-linejoin:round;">
</g>
<g style="fill:#840000; fill-opacity:0.0; 
stroke:#840000; stroke-width:60; stroke-opacity:1; 
stroke-linecap:round; stroke-linejoin:round;">
<rect x="69690" y="65360" width="42520" height="12600" rx="0" />
</g>
<g style="fill:#840000; fill-opacity:0.0; 
stroke:#840000; stroke-width:100; stroke-opacity:1; 
stroke-linecap:round; stroke-linejoin:round;">
</g>
<g style="fill:#840000; fill-opacity:0.0; 
stroke:#840000; stroke-width:60; stroke-opacity:1; 
stroke-linecap:round; stroke-linejoin:round;">
<rect x="3940" y="3940" width="109050" height="74800" rx="0" />
</g>
<g style="fill:#840000; fill-opacity:0.0; 
stroke:#840000; stroke-width:100; stroke-opacity:1; 
stroke-linecap:round; stroke-linejoin:round;">
</g>
<g style="fill:#840000; fill-opacity:0.0; 
stroke:#840000; stroke-width:60; stroke-opacity:1; 
stroke-linecap:round; stroke-linejoin:round;">
<rect x="4720" y="4720" width="107490" height="73240" rx="0" />
</g>
<g style="fill:#840000; fill-opacity:0.0; 
stroke:#840000; stroke-width:100; stroke-opacity:1; 
stroke-linecap:round; stroke-linejoin:round;">
</g>
<g style="fill:#840000; fill-opacity:0.0; 
stroke:#840000; stroke-width:60; stroke-opacity:1; 
stroke-linecap:round; stroke-linejoin:round;">
<path d="M23620 4720
L23620 3940
" />
</g>
<g style="fill:#840000; fill-opacity:0.0; 
stroke:#840000; stroke-width:100; stroke-opacity:1; 
stroke-linecap:round; stroke-linejoin:round;">
</g>
<g style="fill:#840000; fill-opacity:0.0; 
stroke:#840000; stroke-width:60; stroke-opacity:1; 
stroke-linecap:round; stroke-linejoin:round;">
<path d="M43310 4720
L43310 3940
" />
</g>
<g style="fill:#840000; fill-opacity:0.0; 
stroke:#840000; stroke-width:100; stroke-opacity:1; 
stroke-linecap:round; stroke-linejoin:round;">
</g>
<g style="fill:#840000; fill-opacity:0.0; 
stroke:#840000; stroke-width:60; stroke-opacity:1; 
stroke-linecap:round; stroke-linejoin:round;">
<path d="M62990 4720
L62990 3940
" />
</g>
<g style="fill:#840000; fill-opacity:0.0; 
stroke:#840000; stroke-width:100; stroke-opacity:1; 
stroke-linecap:round; stroke-linejoin:round;">
</g>
<g style="fill:#840000; fill-opacity:0.0; 
stroke:#840000; stroke-width:60; stroke-opacity:1; 
stroke-linecap:round; stroke-linejoin:round;">
<path d="M82680 4720
L82680 3940
" />
</g>
<g style="fill:#840000; fill-opacity:0.0; 
stroke:#840000; stroke-width:100; stroke-opacity:1; 
stroke-linecap:round; stroke-linejoin:round;">
</g>
<g style="fill:#840000; fill-opacity:0.0; 
stroke:#840000; stroke-width:60; stroke-opacity:1; 
stroke-linecap:round; stroke-linejoin:round;">
<path d="M102360 4720
L102360 3940
" />
</g>
<g style="fill:#840000; fill-opacity:0.0; 
stroke:#840000; stroke-width:100; stroke-opacity:1; 
stroke-linecap:round; stroke-linejoin:round;">
</g>
<g style="fill:#840000; fill-opacity:0.0; 
stroke:#840000; stroke-width:60; stroke-opacity:1; 
stroke-linecap:round; stroke-linejoin:round;">
<text x="13780" y="4580"
textLength="550" font-size="680" lengthAdjust="spacingAndGlyphs"
text-anchor="start" opacity="0">1</text>
<path d="M14190 4560
L13900 4560
" />
<path d="M14050 4560
L14050 4050
L14000 4120
L13950 4170
L13900 4190
" />
</g>
<g style="fill:#840000; fill-opacity:0.0; 
stroke:#840000; stroke-width:100; stroke-opacity:1; 
stroke-linecap:round; stroke-linejoin:round;">
</g>
<g style="fill:#840000; fill-opacity:0.0; 
stroke:#840000; stroke-width:60; stroke-opacity:1; 
stroke-linecap:round; stroke-linejoin:round;">
<text x="33460" y="4580"
textLength="550" font-size="680" lengthAdjust="spacingAndGlyphs"
text-anchor="start" opacity="0">2</text>
<path d="M33580 4090
L33610 4070
L33660 4050
L33780 4050
L33830 4070
L33850 4090
L33870 4140
L33870 4190
L33850 4260
L33560 4560
L33870 4560
" />
</g>
<g style="fill:#840000; fill-opacity:0.0; 
stroke:#840000; stroke-width:100; stroke-opacity:1; 
stroke-linecap:round; stroke-linejoin:round;">
</g>
<g style="fill:#840000; fill-opacity:0.0; 
stroke:#840000; stroke-width:60; stroke-opacity:1; 
stroke-linecap:round; stroke-linejoin:round;">
<text x="53150" y="4580"
textLength="550" font-size="680" lengthAdjust="spacingAndGlyphs"
text-anchor="start" opacity="0">3</text>
<path d="M53250 4050
L53560 4050
L53390 4240
L53470 4240
L53520 4260
L53540 4290
L53560 4340
L53560 4460
L53540 4510
L53520 4530
L53470 4560
L53320 4560
L53270 4530
L53250 4510
" />
</g>
<g style="fill:#840000; fill-opacity:0.0; 
stroke:#840000; stroke-width:100; stroke-opacity:1; 
stroke-linecap:round; stroke-linejoin:round;">
</g>
<g style="fill:#840000; fill-opacity:0.0; 
stroke:#840000; stroke-width:60; stroke-opacity:1; 
stroke-linecap:round; stroke-linejoin:round;">
<text x="72830" y="4580"
textLength="550" font-size="680" lengthAdjust="spacingAndGlyphs"
text-anchor="start" opacity="0">4</text>
<path d="M73200 4220
L73200 4560
" />
<path d="M73070 4020
L72950 4390
L73270 4390
" />
</g>
<g style="fill:#840000; fill-opacity:0.0; 
stroke:#840000; stroke-width:100; stroke-opacity:1; 
stroke-linecap:round; stroke-linejoin:round;">
</g>
<g style="fill:#840000; fill-opacity:0.0; 
stroke:#840000; stroke-width:60; stroke-opacity:1; 
stroke-linecap:round; stroke-linejoin:round;">
<text x="92520" y="4580"
textLength="550" font-size="680" lengthAdjust="spacingAndGlyphs"
text-anchor="start" opacity="0">5</text>
<path d="M92910 4050
L92670 4050
L92640 4290
L92670 4260
L92720 4240
L92840 4240
L92890 4260
L92910 4290
L92930 4340
L92930 4460
L92910 4510
L92890 4530
L92840 4560
L92720 4560
L92670 4530
L92640 4510
" />
</g>
<g style="fill:#840000; fill-opacity:0.0; 
stroke:#840000; stroke-width:100; stroke-opacity:1; 
stroke-linecap:round; stroke-linejoin:round;">
</g>
<g style="fill:#840000; fill-opacity:0.0; 
stroke:#840000; stroke-width:60; stroke-opacity:1; 
stroke-linecap:round; stroke-linejoin:round;">
<text x="112200" y="4580"
textLength="550" font-size="680" lengthAdjust="spacingAndGlyphs"
text-anchor="start" opacity="0">6</text>
<path d="M112570 4050
L112470 4050
L112420 4070
L112400 4090
L112350 4170
L112320 4260
L112320 4460
L112350 4510
L112370 4530
L112420 4560
L112520 4560
L112570 4530
L112590 4510
L112610 4460
L112610 4340
L112590 4290
L112570 4260
L112520 4240
L112420 4240
L112370 4260
L112350 4290
L112320 4340
" />
</g>
<g style="fill:#840000; fill-opacity:0.0; 
stroke:#840000; stroke-width:100; stroke-opacity:1; 
stroke-linecap:round; stroke-linejoin:round;">
</g>
<g style="fill:#840000; fill-opacity:0.0; 
stroke:#840000; stroke-width:60; stroke-opacity:1; 
stroke-linecap:round; stroke-linejoin:round;">
<path d="M23620 77960
L23620 78740
" />
</g>
<g style="fill:#840000; fill-opacity:0.0; 
stroke:#840000; stroke-width:100; stroke-opacity:1; 
stroke-linecap:round; stroke-linejoin:round;">
</g>
<g style="fill:#840000; fill-opacity:0.0; 
stroke:#840000; stroke-width:60; stroke-opacity:1; 
stroke-linecap:round; stroke-linejoin:round;">
<path d="M43310 77960
L43310 78740
" />
</g>
<g style="fill:#840000; fill-opacity:0.0; 
stroke:#840000; stroke-width:100; stroke-opacity:1; 
stroke-linecap:round; stroke-linejoin:round;">
</g>
<g style="fill:#840000; fill-opacity:0.0; 
stroke:#840000; stroke-width:60; stroke-opacity:1; 
stroke-linecap:round; stroke-linejoin:round;">
<path d="M62990 77960
L62990 78740
" />
</g>
<g style="fill:#840000; fill-opacity:0.0; 
stroke:#840000; stroke-width:100; stroke-opacity:1; 
stroke-linecap:round; stroke-linejoin:round;">
</g>
<g style="fill:#840000; fill-opacity:0.0; 
stroke:#840000; stroke-width:60; stroke-opacity:1; 
stroke-linecap:round; stroke-linejoin:round;">
<path d="M82680 77960
L82680 78740
" />
</g>
<g style="fill:#840000; fill-opacity:0.0; 
stroke:#840000; stroke-width:100; stroke-opacity:1; 
stroke-linecap:round; stroke-linejoin:round;">
</g>
<g style="fill:#840000; fill-opacity:0.0; 
stroke:#840000; stroke-width:60; stroke-opacity:1; 
stroke-linecap:round; stroke-linejoin:round;">
<path d="M102360 77960
L102360 78740
" />
</g>
<g style="fill:#840000; fill-opacity:0.0; 
stroke:#840000; stroke-width:100; stroke-opacity:1; 
stroke-linecap:round; stroke-linejoin:round;">
</g>
<g style="fill:#840000; fill-opacity:0.0; 
stroke:#840000; stroke-width:60; stroke-opacity:1; 
stroke-linecap:round; stroke-linejoin:round;">
<text x="13780" y="78600"
textLength="550" font-size="680" lengthAdjust="spacingAndGlyphs"
text-anchor="start" opacity="0">1</text>
<path d="M14190 78580
L13900 78580
" />
<path d="M14050 78580
L14050 78070
L14000 78140
L13950 78190
L13900 78210
" />
</g>
<g style="fill:#840000; fill-opacity:0.0; 
stroke:#840000; stroke-width:100; stroke-opacity:1; 
stroke-linecap:round; stroke-linejoin:round;">
</g>
<g style="fill:#840000; fill-opacity:0.0; 
stroke:#840000; stroke-width:60; stroke-opacity:1; 
stroke-linecap:round; stroke-linejoin:round;">
<text x="33460" y="78600"
textLength="550" font-size="680" lengthAdjust="spacingAndGlyphs"
text-anchor="start" opacity="0">2</text>
<path d="M33580 78110
L33610 78090
L33660 78070
L33780 78070
L33830 78090
L33850 78110
L33870 78160
L33870 78210
L33850 78280
L33560 78580
L33870 78580
" />
</g>
<g style="fill:#840000; fill-opacity:0.0; 
stroke:#840000; stroke-width:100; stroke-opacity:1; 
stroke-linecap:round; stroke-linejoin:round;">
</g>
<g style="fill:#840000; fill-opacity:0.0; 
stroke:#840000; stroke-width:60; stroke-opacity:1; 
stroke-linecap:round; stroke-linejoin:round;">
<text x="53150" y="78600"
textLength="550" font-size="680" lengthAdjust="spacingAndGlyphs"
text-anchor="start" opacity="0">3</text>
<path d="M53250 78070
L53560 78070
L53390 78260
L53470 78260
L53520 78280
L53540 78310
L53560 78360
L53560 78480
L53540 78530
L53520 78550
L53470 78580
L53320 78580
L53270 78550
L53250 78530
" />
</g>
<g style="fill:#840000; fill-opacity:0.0; 
stroke:#840000; stroke-width:100; stroke-opacity:1; 
stroke-linecap:round; stroke-linejoin:round;">
</g>
<g style="fill:#840000; fill-opacity:0.0; 
stroke:#840000; stroke-width:60; stroke-opacity:1; 
stroke-linecap:round; stroke-linejoin:round;">
<text x="72830" y="78600"
textLength="550" font-size="680" lengthAdjust="spacingAndGlyphs"
text-anchor="start" opacity="0">4</text>
<path d="M73200 78240
L73200 78580
" />
<path d="M73070 78040
L72950 78410
L73270 78410
" />
</g>
<g style="fill:#840000; fill-opacity:0.0; 
stroke:#840000; stroke-width:100; stroke-opacity:1; 
stroke-linecap:round; stroke-linejoin:round;">
</g>
<g style="fill:#840000; fill-opacity:0.0; 
stroke:#840000; stroke-width:60; stroke-opacity:1; 
stroke-linecap:round; stroke-linejoin:round;">
<text x="92520" y="78600"
textLength="550" font-size="680" lengthAdjust="spacingAndGlyphs"
text-anchor="start" opacity="0">5</text>
<path d="M92910 78070
L92670 78070
L92640 78310
L92670 78280
L92720 78260
L92840 78260
L92890 78280
L92910 78310
L92930 78360
L92930 78480
L92910 78530
L92890 78550
L92840 78580
L92720 78580
L92670 78550
L92640 78530
" />
</g>
<g style="fill:#840000; fill-opacity:0.0; 
stroke:#840000; stroke-width:100; stroke-opacity:1; 
stroke-linecap:round; stroke-linejoin:round;">
</g>
<g style="fill:#840000; fill-opacity:0.0; 
stroke:#840000; stroke-width:60; stroke-opacity:1; 
stroke-linecap:round; stroke-linejoin:round;">
<text x="112200" y="78600"
textLength="550" font-size="680" lengthAdjust="spacingAndGlyphs"
text-anchor="start" opacity="0">6</text>
<path d="M112570 78070
L112470 78070
L112420 78090
L112400 78110
L112350 78190
L112320 78280
L112320 78480
L112350 78530
L112370 78550
L112420 78580
L112520 78580
L112570 78550
L112590 78530
L112610 78480
L112610 78360
L112590 78310
L112570 78280
L112520 78260
L112420 78260
L112370 78280
L112350 78310
L112320 78360
" />
</g>
<g style="fill:#840000; fill-opacity:0.0; 
stroke:#840000; stroke-width:100; stroke-opacity:1; 
stroke-linecap:round; stroke-linejoin:round;">
</g>
<g style="fill:#840000; fill-opacity:0.0; 
stroke:#840000; stroke-width:60; stroke-opacity:1; 
stroke-linecap:round; stroke-linejoin:round;">
<path d="M3940 23620
L4720 23620
" />
</g>
<g style="fill:#840000; fill-opacity:0.0; 
stroke:#840000; stroke-width:100; stroke-opacity:1; 
stroke-linecap:round; stroke-linejoin:round;">
</g>
<g style="fill:#840000; fill-opacity:0.0; 
stroke:#840000; stroke-width:60; stroke-opacity:1; 
stroke-linecap:round; stroke-linejoin:round;">
<path d="M3940 43310
L4720 43310
" />
</g>
<g style="fill:#840000; fill-opacity:0.0; 
stroke:#840000; stroke-width:100; stroke-opacity:1; 
stroke-linecap:round; stroke-linejoin:round;">
</g>
<g style="fill:#840000; fill-opacity:0.0; 
stroke:#840000; stroke-width:60; stroke-opacity:1; 
stroke-linecap:round; stroke-linejoin:round;">
<path d="M3940 62990
L4720 62990
" />
</g>
<g style="fill:#840000; fill-opacity:0.0; 
stroke:#840000; stroke-width:100; stroke-opacity:1; 
stroke-linecap:round; stroke-linejoin:round;">
</g>
<g style="fill:#840000; fill-opacity:0.0; 
stroke:#840000; stroke-width:60; stroke-opacity:1; 
stroke-linecap:round; stroke-linejoin:round;">
<text x="4330" y="14030"
textLength="500" font-size="680" lengthAdjust="spacingAndGlyphs"
text-anchor="middle" opacity="0">A</text>
<path d="M4200 13860
L4450 13860
" />
<path d="M4160 14010
L4330 13500
L4500 14010
" />
</g>
<g style="fill:#840000; fill-opacity:0.0; 
stroke:#840000; stroke-width:100; stroke-opacity:1; 
stroke-linecap:round; stroke-linejoin:round;">
</g>
<g style="fill:#840000; fill-opacity:0.0; 
stroke:#840000; stroke-width:60; stroke-opacity:1; 
stroke-linecap:round; stroke-linejoin:round;">
<text x="4330" y="33710"
textLength="570" font-size="680" lengthAdjust="spacingAndGlyphs"
text-anchor="middle" opacity="0">B</text>
<path d="M4360 33420
L4430 33440
L4460 33470
L4480 33520
L4480 33590
L4460 33640
L4430 33660
L4390 33690
L4190 33690
L4190 33180
L4360 33180
L4410 33200
L4430 33220
L4460 33270
L4460 33320
L4430 33370
L4410 33390
L4360 33420
L4190 33420
" />
</g>
<g style="fill:#840000; fill-opacity:0.0; 
stroke:#840000; stroke-width:100; stroke-opacity:1; 
stroke-linecap:round; stroke-linejoin:round;">
</g>
<g style="fill:#840000; fill-opacity:0.0; 
stroke:#840000; stroke-width:60; stroke-opacity:1; 
stroke-linecap:round; stroke-linejoin:round;">
<text x="4330" y="53400"
textLength="570" font-size="680" lengthAdjust="spacingAndGlyphs"
text-anchor="middle" opacity="0">C</text>
<path d="M4480 53330
L4460 53350
L4390 53380
L4340 53380
L4260 53350
L4220 53300
L4190 53250
L4170 53160
L4170 53080
L4190 52990
L4220 52940
L4260 52890
L4340 52870
L4390 52870
L4460 52890
L4480 52910
" />
</g>
<g style="fill:#840000; fill-opacity:0.0; 
stroke:#840000; stroke-width:100; stroke-opacity:1; 
stroke-linecap:round; stroke-linejoin:round;">
</g>
<g style="fill:#840000; fill-opacity:0.0; 
stroke:#840000; stroke-width:60; stroke-opacity:1; 
stroke-linecap:round; stroke-linejoin:round;">
<text x="4330" y="73080"
textLength="570" font-size="680" lengthAdjust="spacingAndGlyphs"
text-anchor="middle" opacity="0">D</text>
<path d="M4190 73060
L4190 72550
L4310 72550
L4390 72570
L4430 72620
L4460 72670
L4480 72760
L4480 72840
L4460 72930
L4430 72980
L4390 73030
L4310 73060
L4190 73060
" />
</g>
<g style="fill:#840000; fill-opacity:0.0; 
stroke:#840000; stroke-width:100; stroke-opacity:1; 
stroke-linecap:round; stroke-linejoin:round;">
</g>
<g style="fill:#840000; fill-opacity:0.0; 
stroke:#840000; stroke-width:60; stroke-opacity:1; 
stroke-linecap:round; stroke-linejoin:round;">
<path d="M112990 23620
L112210 23620
" />
</g>
<g style="fill:#840000; fill-opacity:0.0; 
stroke:#840000; stroke-width:100; stroke-opacity:1; 
stroke-linecap:round; stroke-linejoin:round;">
</g>
<g style="fill:#840000; fill-opacity:0.0; 
stroke:#840000; stroke-width:60; stroke-opacity:1; 
stroke-linecap:round; stroke-linejoin:round;">
<path d="M112990 43310
L112210 43310
" />
</g>
<g style="fill:#840000; fill-opacity:0.0; 
stroke:#840000; stroke-width:100; stroke-opacity:1; 
stroke-linecap:round; stroke-linejoin:round;">
</g>
<g style="fill:#840000; fill-opacity:0.0; 
stroke:#840000; stroke-width:60; stroke-opacity:1; 
stroke-linecap:round; stroke-linejoin:round;">
<path d="M112990 62990
L112210 62990
" />
</g>
<g style="fill:#840000; fill-opacity:0.0; 
stroke:#840000; stroke-width:100; stroke-opacity:1; 
stroke-linecap:round; stroke-linejoin:round;">
</g>
<g style="fill:#840000; fill-opacity:0.0; 
stroke:#840000; stroke-width:60; stroke-opacity:1; 
stroke-linecap:round; stroke-linejoin:round;">
<text x="112600" y="14030"
textLength="500" font-size="680" lengthAdjust="spacingAndGlyphs"
text-anchor="middle" opacity="0">A</text>
<path d="M112470 13860
L112720 13860
" />
<path d="M112430 14010
L112600 13500
L112770 14010
" />
</g>
<g style="fill:#840000; fill-opacity:0.0; 
stroke:#840000; stroke-width:100; stroke-opacity:1; 
stroke-linecap:round; stroke-linejoin:round;">
</g>
<g style="fill:#840000; fill-opacity:0.0; 
stroke:#840000; stroke-width:60; stroke-opacity:1; 
stroke-linecap:round; stroke-linejoin:round;">
<text x="112600" y="33710"
textLength="570" font-size="680" lengthAdjust="spacingAndGlyphs"
text-anchor="middle" opacity="0">B</text>
<path d="M112630 33420
L112700 33440
L112730 33470
L112750 33520
L112750 33590
L112730 33640
L112700 33660
L112660 33690
L112460 33690
L112460 33180
L112630 33180
L112680 33200
L112700 33220
L112730 33270
L112730 33320
L112700 33370
L112680 33390
L112630 33420
L112460 33420
" />
</g>
<g style="fill:#840000; fill-opacity:0.0; 
stroke:#840000; stroke-width:100; stroke-opacity:1; 
stroke-linecap:round; stroke-linejoin:round;">
</g>
<g style="fill:#840000; fill-opacity:0.0; 
stroke:#840000; stroke-width:60; stroke-opacity:1; 
stroke-linecap:round; stroke-linejoin:round;">
<text x="112600" y="53400"
textLength="570" font-size="680" lengthAdjust="spacingAndGlyphs"
text-anchor="middle" opacity="0">C</text>
<path d="M112750 53330
L112730 53350
L112660 53380
L112610 53380
L112530 53350
L112490 53300
L112460 53250
L112440 53160
L112440 53080
L112460 52990
L112490 52940
L112530 52890
L112610 52870
L112660 52870
L112730 52890
L112750 52910
" />
</g>
<g style="fill:#840000; fill-opacity:0.0; 
stroke:#840000; stroke-width:100; stroke-opacity:1; 
stroke-linecap:round; stroke-linejoin:round;">
</g>
<g style="fill:#840000; fill-opacity:0.0; 
stroke:#840000; stroke-width:60; stroke-opacity:1; 
stroke-linecap:round; stroke-linejoin:round;">
<text x="112600" y="73080"
textLength="570" font-size="680" lengthAdjust="spacingAndGlyphs"
text-anchor="middle" opacity="0">D</text>
<path d="M112460 73060
L112460 72550
L112580 72550
L112660 72570
L112700 72620
L112730 72670
L112750 72760
L112750 72840
L112730 72930
L112700 72980
L112660 73030
L112580 73060
L112460 73060
" />
</g>
<g style="fill:#840000; fill-opacity:0.0; 
stroke:#840000; stroke-width:100; stroke-opacity:1; 
stroke-linecap:round; stroke-linejoin:round;">
</g>
<g style="fill:#840000; fill-opacity:0.0; 
stroke:#840000; stroke-width:60; stroke-opacity:1; 
stroke-linecap:round; stroke-linejoin:round;">
<text x="78740" y="76320"
textLength="2760" font-size="780" lengthAdjust="spacingAndGlyphs"
text-anchor="start" opacity="0">Date: </text>
<path d="M78910 76290
L78910 75700
L79050 75700
L79130 75730
L79190 75790
L79210 75840
L79240 75950
L79240 76040
L79210 76150
L79190 76210
L79130 76260
L79050 76290
L78910 76290
" />
<path d="M79750 76290
L79750 75980
L79720 75930
L79660 75900
L79550 75900
L79500 75930
" />
<path d="M79750 76260
L79690 76290
L79550 76290
L79500 76260
L79470 76210
L79470 76150
L79500 76100
L79550 76070
L79690 76070
L79750 76040
" />
<path d="M79950 75900
L80170 75900
" />
<path d="M80030 75700
L80030 76210
L80060 76260
L80110 76290
L80170 76290
" />
<path d="M80590 76260
L80540 76290
L80420 76290
L80370 76260
L80340 76210
L80340 75980
L80370 75930
L80420 75900
L80540 75900
L80590 75930
L80620 75980
L80620 76040
L80340 76100
" />
<path d="M80870 76240
L80900 76260
L80870 76290
L80840 76260
L80870 76240
L80870 76290
" />
<path d="M80870 75930
L80900 75950
L80870 75980
L80840 75950
L80870 75930
L80870 75980
" />
</g>
<g style="fill:#840000; fill-opacity:0.0; 
stroke:#840000; stroke-width:100; stroke-opacity:1; 
stroke-linecap:round; stroke-linejoin:round;">
</g>
<g style="fill:#840000; fill-opacity:0.0; 
stroke:#840000; stroke-width:60; stroke-opacity:1; 
stroke-linecap:round; stroke-linejoin:round;">
<path d="M69690 76580
L112210 76580
" />
</g>
<g style="fill:#840000; fill-opacity:0.0; 
stroke:#840000; stroke-width:100; stroke-opacity:1; 
stroke-linecap:round; stroke-linejoin:round;">
</g>
<g style="fill:#840000; fill-opacity:0.0; 
stroke:#840000; stroke-width:60; stroke-opacity:1; 
stroke-linecap:round; stroke-linejoin:round;">
<text x="70080" y="77420"
textLength="12000" font-size="780" lengthAdjust="spacingAndGlyphs"
text-anchor="start" opacity="0">KiCad E.D.A.  kicad 5.1.10</text>
<path d="M70250 77390
L70250 76800
" />
<path d="M70580 77390
L70330 77050
" />
<path d="M70580 76800
L70250 77140
" />
<path d="M70840 77390
L70840 77000
" />
<path d="M70840 76800
L70810 76830
L70840 76860
L70860 76830
L70840 76800
L70840 76860
" />
<path d="M71450 77340
L71430 77360
L71340 77390
L71290 77390
L71200 77360
L71140 77310
L71120 77250
L71090 77140
L71090 77050
L71120 76940
L71140 76890
L71200 76830
L71290 76800
L71340 76800
L71430 76830
L71450 76860
" />
<path d="M71960 77390
L71960 77080
L71930 77030
L71880 77000
L71760 77000
L71710 77030
" />
<path d="M71960 77360
L71900 77390
L71760 77390
L71710 77360
L71680 77310
L71680 77250
L71710 77200
L71760 77170
L71900 77170
L71960 77140
" />
<path d="M72490 77390
L72490 76800
" />
<path d="M72490 77360
L72440 77390
L72320 77390
L72270 77360
L72240 77340
L72210 77280
L72210 77110
L72240 77050
L72270 77030
L72320 77000
L72440 77000
L72490 77030
" />
<path d="M73220 77080
L73420 77080
" />
<path d="M73500 77390
L73220 77390
L73220 76800
L73500 76800
" />
<path d="M73760 77340
L73790 77360
L73760 77390
L73730 77360
L73760 77340
L73760 77390
" />
<path d="M74040 77390
L74040 76800
L74180 76800
L74260 76830
L74320 76890
L74350 76940
L74380 77050
L74380 77140
L74350 77250
L74320 77310
L74260 77360
L74180 77390
L74040 77390
" />
<path d="M74630 77340
L74660 77360
L74630 77390
L74600 77360
L74630 77340
L74630 77390
" />
<path d="M74880 77220
L75160 77220
" />
<path d="M74830 77390
L75020 76800
L75220 77390
" />
<path d="M75420 77340
L75440 77360
L75420 77390
L75390 77360
L75420 77340
L75420 77390
" />
<path d="M76600 77390
L76600 76800
" />
<path d="M76650 77170
L76820 77390
" />
<path d="M76820 77000
L76600 77220
" />
<path d="M77070 77390
L77070 77000
" />
<path d="M77070 76800
L77040 76830
L77070 76860
L77100 76830
L77070 76800
L77070 76860
" />
<path d="M77610 77360
L77550 77390
L77440 77390
L77380 77360
L77350 77340
L77330 77280
L77330 77110
L77350 77050
L77380 77030
L77440 77000
L77550 77000
L77610 77030
" />
<path d="M78110 77390
L78110 77080
L78080 77030
L78030 77000
L77920 77000
L77860 77030
" />
<path d="M78110 77360
L78060 77390
L77920 77390
L77860 77360
L77830 77310
L77830 77250
L77860 77200
L77920 77170
L78060 77170
L78110 77140
" />
<path d="M78650 77390
L78650 76800
" />
<path d="M78650 77360
L78590 77390
L78480 77390
L78420 77360
L78390 77340
L78370 77280
L78370 77110
L78390 77050
L78420 77030
L78480 77000
L78590 77000
L78650 77030
" />
<path d="M79660 76800
L79380 76800
L79350 77080
L79380 77050
L79430 77030
L79570 77030
L79630 77050
L79660 77080
L79690 77140
L79690 77280
L79660 77340
L79630 77360
L79570 77390
L79430 77390
L79380 77360
L79350 77340
" />
<path d="M79940 77340
L79970 77360
L79940 77390
L79910 77360
L79940 77340
L79940 77390
" />
<path d="M80530 77390
L80190 77390
" />
<path d="M80360 77390
L80360 76800
L80300 76890
L80250 76940
L80190 76970
" />
<path d="M80780 77340
L80810 77360
L80780 77390
L80750 77360
L80780 77340
L80780 77390
" />
<path d="M81370 77390
L81030 77390
" />
<path d="M81200 77390
L81200 76800
L81150 76890
L81090 76940
L81030 76970
" />
<path d="M81740 76800
L81790 76800
L81850 76830
L81880 76860
L81910 76910
L81930 77030
L81930 77170
L81910 77280
L81880 77340
L81850 77360
L81790 77390
L81740 77390
L81680 77360
L81650 77340
L81620 77280
L81600 77170
L81600 77030
L81620 76910
L81650 76860
L81680 76830
L81740 76800
" />
</g>
<g style="fill:#840000; fill-opacity:0.0; 
stroke:#840000; stroke-width:100; stroke-opacity:1; 
stroke-linecap:round; stroke-linejoin:round;">
</g>
<g style="fill:#840000; fill-opacity:0.0; 
stroke:#840000; stroke-width:60; stroke-opacity:1; 
stroke-linecap:round; stroke-linejoin:round;">
<path d="M69690 75400
L112210 75400
" />
</g>
<g style="fill:#840000; fill-opacity:0.0; 
stroke:#840000; stroke-width:100; stroke-opacity:1; 
stroke-linecap:round; stroke-linejoin:round;">
</g>
<g style="fill:#840000; fill-opacity:0.0; 
stroke:#840000; stroke-width:120; stroke-opacity:1; 
stroke-linecap:round; stroke-linejoin:round;">
<text x="103540" y="76320"
textLength="2340" font-size="780" lengthAdjust="spacingAndGlyphs"
text-anchor="start" opacity="0">Rev: </text>
<path d="M104090 76290
L103890 76010
" />
<path d="M103750 76290
L103750 75700
L103980 75700
L104030 75730
L104060 75760
L104090 75810
L104090 75900
L104060 75950
L104030 75980
L103980 76010
L103750 76010
" />
<path d="M104570 76260
L104510 76290
L104400 76290
L104340 76260
L104320 76210
L104320 75980
L104340 75930
L104400 75900
L104510 75900
L104570 75930
L104600 75980
L104600 76040
L104320 76100
" />
<path d="M104790 75900
L104930 76290
L105070 75900
" />
<path d="M105300 76240
L105330 76260
L105300 76290
L105270 76260
L105300 76240
L105300 76290
" />
<path d="M105300 75930
L105330 75950
L105300 75980
L105270 75950
L105300 75930
L105300 75980
" />
</g>
<g style="fill:#840000; fill-opacity:0.0; 
stroke:#840000; stroke-width:100; stroke-opacity:1; 
stroke-linecap:round; stroke-linejoin:round;">
</g>
<g style="fill:#840000; fill-opacity:0.0; 
stroke:#840000; stroke-width:60; stroke-opacity:1; 
stroke-linecap:round; stroke-linejoin:round;">
<text x="70080" y="76320"
textLength="3780" font-size="780" lengthAdjust="spacingAndGlyphs"
text-anchor="start" opacity="0">Size: A4</text>
<path d="M70220 76260
L70300 76290
L70440 76290
L70500 76260
L70530 76240
L70550 76180
L70550 76120
L70530 76070
L70500 76040
L70440 76010
L70330 75980
L70270 75950
L70250 75930
L70220 75870
L70220 75810
L70250 75760
L70270 75730
L70330 75700
L70470 75700
L70550 75730
" />
<path d="M70810 76290
L70810 75900
" />
<path d="M70810 75700
L70780 75730
L70810 75760
L70840 75730
L70810 75700
L70810 75760
" />
<path d="M71030 75900
L71340 75900
L71030 76290
L71340 76290
" />
<path d="M71790 76260
L71730 76290
L71620 76290
L71570 76260
L71540 76210
L71540 75980
L71570 75930
L71620 75900
L71730 75900
L71790 75930
L71820 75980
L71820 76040
L71540 76100
" />
<path d="M72070 76240
L72100 76260
L72070 76290
L72040 76260
L72070 76240
L72070 76290
" />
<path d="M72070 75930
L72100 75950
L72070 75980
L72040 75950
L72070 75930
L72070 75980
" />
<path d="M72770 76120
L73060 76120
" />
<path d="M72720 76290
L72910 75700
L73110 76290
" />
<path d="M73560 75900
L73560 76290
" />
<path d="M73420 75670
L73280 76100
L73650 76100
" />
</g>
<g style="fill:#840000; fill-opacity:0.0; 
stroke:#840000; stroke-width:100; stroke-opacity:1; 
stroke-linecap:round; stroke-linejoin:round;">
</g>
<g style="fill:#840000; fill-opacity:0.0; 
stroke:#840000; stroke-width:60; stroke-opacity:1; 
stroke-linecap:round; stroke-linejoin:round;">
<text x="103540" y="77420"
textLength="3350" font-size="780" lengthAdjust="spacingAndGlyphs"
text-anchor="start" opacity="0">Id: 1/1</text>
<path d="M103710 77390
L103710 76800
" />
<path d="M104240 77390
L104240 76800
" />
<path d="M104240 77360
L104180 77390
L104070 77390
L104010 77360
L103990 77340
L103960 77280
L103960 77110
L103990 77050
L104010 77030
L104070 77000
L104180 77000
L104240 77030
" />
<path d="M104520 77340
L104550 77360
L104520 77390
L104490 77360
L104520 77340
L104520 77390
" />
<path d="M104520 77030
L104550 77050
L104520 77080
L104490 77050
L104520 77030
L104520 77080
" />
<path d="M105560 77390
L105220 77390
" />
<path d="M105390 77390
L105390 76800
L105340 76890
L105280 76940
L105220 76970
" />
<path d="M106230 76770
L105730 77530
" />
<path d="M106740 77390
L106400 77390
" />
<path d="M106570 77390
L106570 76800
L106520 76890
L106460 76940
L106400 76970
" />
</g>
<g style="fill:#840000; fill-opacity:0.0; 
stroke:#840000; stroke-width:100; stroke-opacity:1; 
stroke-linecap:round; stroke-linejoin:round;">
</g>
<g style="fill:#840000; fill-opacity:0.0; 
stroke:#840000; stroke-width:60; stroke-opacity:1; 
stroke-linecap:round; stroke-linejoin:round;">
<path d="M69690 73820
L112210 73820
" />
</g>
<g style="fill:#840000; fill-opacity:0.0; 
stroke:#840000; stroke-width:100; stroke-opacity:1; 
stroke-linecap:round; stroke-linejoin:round;">
</g>
<g style="fill:#840000; fill-opacity:0.0; 
stroke:#840000; stroke-width:160; stroke-opacity:1; 
stroke-linecap:round; stroke-linejoin:round;">
<text x="70080" y="74920"
textLength="3710" font-size="1050" lengthAdjust="spacingAndGlyphs"
text-anchor="start" opacity="0">Title: </text>
<path d="M70360 74090
L70810 74090
" />
<path d="M70480 74880
L70580 74090
" />
<path d="M70970 74880
L71040 74360
" />
<path d="M71070 74090
L71030 74130
L71060 74170
L71110 74130
L71070 74090
L71060 74170
" />
<path d="M71300 74360
L71600 74360
" />
<path d="M71450 74090
L71360 74770
L71390 74840
L71460 74880
L71540 74880
" />
<path d="M71910 74880
L71840 74840
L71820 74770
L71900 74090
" />
<path d="M72520 74840
L72440 74880
L72290 74880
L72220 74840
L72190 74770
L72230 74470
L72280 74390
L72360 74360
L72510 74360
L72580 74390
L72610 74470
L72600 74540
L72210 74620
" />
<path d="M72900 74810
L72930 74840
L72890 74880
L72860 74840
L72900 74810
L72890 74880
" />
<path d="M72950 74390
L72990 74430
L72940 74470
L72910 74430
L72950 74390
L72940 74470
" />
</g>
<g style="fill:#840000; fill-opacity:0.0; 
stroke:#840000; stroke-width:100; stroke-opacity:1; 
stroke-linecap:round; stroke-linejoin:round;">
</g>
<g style="fill:#840000; fill-opacity:0.0; 
stroke:#840000; stroke-width:60; stroke-opacity:1; 
stroke-linecap:round; stroke-linejoin:round;">
<text x="70080" y="73400"
textLength="15100" font-size="780" lengthAdjust="spacingAndGlyphs"
text-anchor="start" opacity="0">File: esp8266-single-sensor.sch</text>
<path d="M70440 73060
L70250 73060
" />
<path d="M70250 73370
L70250 72780
L70530 72780
" />
<path d="M70750 73370
L70750 72980
" />
<path d="M70750 72780
L70720 72810
L70750 72840
L70780 72810
L70750 72780
L70750 72840
" />
<path d="M71120 73370
L71060 73340
L71030 73290
L71030 72780
" />
<path d="M71570 73340
L71510 73370
L71400 73370
L71340 73340
L71310 73290
L71310 73060
L71340 73010
L71400 72980
L71510 72980
L71570 73010
L71590 73060
L71590 73120
L71310 73180
" />
<path d="M71850 73320
L71880 73340
L71850 73370
L71820 73340
L71850 73320
L71850 73370
" />
<path d="M71850 73010
L71880 73030
L71850 73060
L71820 73030
L71850 73010
L71850 73060
" />
<path d="M72800 73340
L72750 73370
L72630 73370
L72580 73340
L72550 73290
L72550 73060
L72580 73010
L72630 72980
L72750 72980
L72800 73010
L72830 73060
L72830 73120
L72550 73180
" />
<path d="M73060 73340
L73110 73370
L73220 73370
L73280 73340
L73310 73290
L73310 73260
L73280 73200
L73220 73180
L73140 73180
L73080 73150
L73060 73090
L73060 73060
L73080 73010
L73140 72980
L73220 72980
L73280 73010
" />
<path d="M73560 72980
L73560 73570
" />
<path d="M73560 73010
L73620 72980
L73730 72980
L73790 73010
L73810 73030
L73840 73090
L73840 73260
L73810 73320
L73790 73340
L73730 73370
L73620 73370
L73560 73340
" />
<path d="M74180 73030
L74120 73010
L74090 72980
L74070 72920
L74070 72890
L74090 72840
L74120 72810
L74180 72780
L74290 72780
L74350 72810
L74380 72840
L74400 72890
L74400 72920
L74380 72980
L74350 73010
L74290 73030
L74180 73030
L74120 73060
L74090 73090
L74070 73150
L74070 73260
L74090 73320
L74120 73340
L74180 73370
L74290 73370
L74350 73340
L74380 73320
L74400 73260
L74400 73150
L74380 73090
L74350 73060
L74290 73030
" />
<path d="M74630 72840
L74660 72810
L74710 72780
L74850 72780
L74910 72810
L74940 72840
L74970 72890
L74970 72950
L74940 73030
L74600 73370
L74970 73370
" />
<path d="M75470 72780
L75360 72780
L75300 72810
L75270 72840
L75220 72920
L75190 73030
L75190 73260
L75220 73320
L75250 73340
L75300 73370
L75420 73370
L75470 73340
L75500 73320
L75530 73260
L75530 73120
L75500 73060
L75470 73030
L75420 73010
L75300 73010
L75250 73030
L75220 73060
L75190 73120
" />
<path d="M76030 72780
L75920 72780
L75860 72810
L75840 72840
L75780 72920
L75750 73030
L75750 73260
L75780 73320
L75810 73340
L75860 73370
L75980 73370
L76030 73340
L76060 73320
L76090 73260
L76090 73120
L76060 73060
L76030 73030
L75980 73010
L75860 73010
L75810 73030
L75780 73060
L75750 73120
" />
<path d="M76340 73150
L76790 73150
" />
<path d="M77040 73340
L77100 73370
L77210 73370
L77270 73340
L77300 73290
L77300 73260
L77270 73200
L77210 73180
L77130 73180
L77070 73150
L77040 73090
L77040 73060
L77070 73010
L77130 72980
L77210 72980
L77270 73010
" />
<path d="M77550 73370
L77550 72980
" />
<path d="M77550 72780
L77520 72810
L77550 72840
L77580 72810
L77550 72780
L77550 72840
" />
<path d="M77830 72980
L77830 73370
" />
<path d="M77830 73030
L77860 73010
L77920 72980
L78000 72980
L78060 73010
L78080 73060
L78080 73370
" />
<path d="M78620 72980
L78620 73460
L78590 73510
L78560 73540
L78510 73570
L78420 73570
L78370 73540
" />
<path d="M78620 73340
L78560 73370
L78450 73370
L78390 73340
L78370 73320
L78340 73260
L78340 73090
L78370 73030
L78390 73010
L78450 72980
L78560 72980
L78620 73010
" />
<path d="M78980 73370
L78930 73340
L78900 73290
L78900 72780
" />
<path d="M79430 73340
L79380 73370
L79260 73370
L79210 73340
L79180 73290
L79180 73060
L79210 73010
L79260 72980
L79380 72980
L79430 73010
L79460 73060
L79460 73120
L79180 73180
" />
<path d="M79710 73150
L80160 73150
" />
<path d="M80420 73340
L80470 73370
L80580 73370
L80640 73340
L80670 73290
L80670 73260
L80640 73200
L80580 73180
L80500 73180
L80440 73150
L80420 73090
L80420 73060
L80440 73010
L80500 72980
L80580 72980
L80640 73010
" />
<path d="M81150 73340
L81090 73370
L80980 73370
L80920 73340
L80890 73290
L80890 73060
L80920 73010
L80980 72980
L81090 72980
L81150 73010
L81170 73060
L81170 73120
L80890 73180
" />
<path d="M81430 72980
L81430 73370
" />
<path d="M81430 73030
L81460 73010
L81510 72980
L81600 72980
L81650 73010
L81680 73060
L81680 73370
" />
<path d="M81930 73340
L81990 73370
L82100 73370
L82160 73340
L82190 73290
L82190 73260
L82160 73200
L82100 73180
L82020 73180
L81960 73150
L81930 73090
L81930 73060
L81960 73010
L82020 72980
L82100 72980
L82160 73010
" />
<path d="M82520 73370
L82470 73340
L82440 73320
L82410 73260
L82410 73090
L82440 73030
L82470 73010
L82520 72980
L82610 72980
L82660 73010
L82690 73030
L82720 73090
L82720 73260
L82690 73320
L82660 73340
L82610 73370
L82520 73370
" />
<path d="M82970 73370
L82970 72980
" />
<path d="M82970 73090
L83000 73030
L83030 73010
L83090 72980
L83140 72980
" />
<path d="M83340 73320
L83370 73340
L83340 73370
L83310 73340
L83340 73320
L83340 73370
" />
<path d="M83590 73340
L83650 73370
L83760 73370
L83820 73340
L83840 73290
L83840 73260
L83820 73200
L83760 73180
L83680 73180
L83620 73150
L83590 73090
L83590 73060
L83620 73010
L83680 72980
L83760 72980
L83820 73010
" />
<path d="M84350 73340
L84290 73370
L84180 73370
L84120 73340
L84100 73320
L84070 73260
L84070 73090
L84100 73030
L84120 73010
L84180 72980
L84290 72980
L84350 73010
" />
<path d="M84600 73370
L84600 72780
" />
<path d="M84860 73370
L84860 73060
L84830 73010
L84770 72980
L84690 72980
L84630 73010
L84600 73030
" />
</g>
<g style="fill:#840000; fill-opacity:0.0; 
stroke:#840000; stroke-width:100; stroke-opacity:1; 
stroke-linecap:round; stroke-linejoin:round;">
</g>
<g style="fill:#840000; fill-opacity:0.0; 
stroke:#840000; stroke-width:60; stroke-opacity:1; 
stroke-linecap:round; stroke-linejoin:round;">
<path d="M69690 71460
L112210 71460
" />
</g>
<g style="fill:#840000; fill-opacity:0.0; 
stroke:#840000; stroke-width:100; stroke-opacity:1; 
stroke-linecap:round; stroke-linejoin:round;">
</g>
<g style="fill:#840000; fill-opacity:0.0; 
stroke:#840000; stroke-width:60; stroke-opacity:1; 
stroke-linecap:round; stroke-linejoin:round;">
<text x="70080" y="72340"
textLength="3850" font-size="780" lengthAdjust="spacingAndGlyphs"
text-anchor="start" opacity="0">Sheet: /</text>
<path d="M70220 72280
L70300 72310
L70440 72310
L70500 72280
L70530 72260
L70550 72200
L70550 72140
L70530 72090
L70500 72060
L70440 72030
L70330 72000
L70270 71970
L70250 71950
L70220 71890
L70220 71830
L70250 71780
L70270 71750
L70330 71720
L70470 71720
L70550 71750
" />
<path d="M70810 72310
L70810 71720
" />
<path d="M71060 72310
L71060 72000
L71030 71950
L70980 71920
L70890 71920
L70840 71950
L70810 71970
" />
<path d="M71570 72280
L71510 72310
L71400 72310
L71340 72280
L71310 72230
L71310 72000
L71340 71950
L71400 71920
L71510 71920
L71570 71950
L71590 72000
L71590 72060
L71310 72120
" />
<path d="M72070 72280
L72020 72310
L71900 72310
L71850 72280
L71820 72230
L71820 72000
L71850 71950
L71900 71920
L72020 71920
L72070 71950
L72100 72000
L72100 72060
L71820 72120
" />
<path d="M72270 71920
L72490 71920
" />
<path d="M72350 71720
L72350 72230
L72380 72280
L72440 72310
L72490 72310
" />
<path d="M72690 72260
L72720 72280
L72690 72310
L72660 72280
L72690 72260
L72690 72310
" />
<path d="M72690 71950
L72720 71970
L72690 72000
L72660 71970
L72690 71950
L72690 72000
" />
<path d="M73840 71690
L73340 72450
" />
</g>
<g style="fill:#840000; fill-opacity:0.0; 
stroke:#840000; stroke-width:100; stroke-opacity:1; 
stroke-linecap:round; stroke-linejoin:round;">
</g>
<g style="fill:#840000; fill-opacity:0.0; 
stroke:#840000; stroke-width:60; stroke-opacity:1; 
stroke-linecap:round; stroke-linejoin:round;">
<path d="M77560 75400
L77560 76580
" />
</g>
<g style="fill:#840000; fill-opacity:0.0; 
stroke:#840000; stroke-width:100; stroke-opacity:1; 
stroke-linecap:round; stroke-linejoin:round;">
</g>
<g style="fill:#840000; fill-opacity:0.0; 
stroke:#840000; stroke-width:60; stroke-opacity:1; 
stroke-linecap:round; stroke-linejoin:round;">
<path d="M102760 75400
L102760 77960
" />
</g>
<g style="fill:#840000; fill-opacity:0.0; 
stroke:#840000; stroke-width:0; stroke-opacity:1; 
stroke-linecap:round; stroke-linejoin:round;">
<g >
</g>
<g style="fill:#FFFFC2; fill-opacity:0.0; 
stroke:#FFFFC2; stroke-width:0; stroke-opacity:1; 
stroke-linecap:round; stroke-linejoin:round;">
</g>
<g style="fill:#FFFFC2; fill-opacity:0.6; 
stroke:#FFFFC2; stroke-width:0; stroke-opacity:1; 
stroke-linecap:round; stroke-linejoin:round;">
<circle cx="16000" cy="40000" r="1000" /> 
</g>
<g style="fill:#840000; fill-opacity:0.6; 
stroke:#840000; stroke-width:0; stroke-opacity:1; 
stroke-linecap:round; stroke-linejoin:round;">
</g>
<g style="fill:#840000; fill-opacity:0.0; 
stroke:#840000; stroke-width:100; stroke-opacity:1; 
stroke-linecap:round; stroke-linejoin:round;">
<circle cx="16000" cy="40000" r="1000" /> 
<circle cx="16000" cy="40000" r="1000" /> 
</g>
<g style="fill:#840000; fill-opacity:0.0; 
stroke:#840000; stroke-width:60; stroke-opacity:1; 
stroke-linecap:round; stroke-linejoin:round;">
<text x="16000" y="39520"
textLength="680" font-size="660" lengthAdjust="spacingAndGlyphs"
text-anchor="middle" opacity="0">+</text>
<path d="M15800 39300
L16190 39300
" />
<path d="M16000 39490
L16000 39110
" />
<path style="fill:#840000; fill-opacity:0.0; 
stroke:#840000; stroke-width:60; stroke-opacity:1; 
stroke-linecap:round; stroke-linejoin:round;fill:none"
d="M 15500,39900
16500,39900
" /> 
<path style="fill:#840000; fill-opacity:0.0; 
stroke:#840000; stroke-width:60; stroke-opacity:1; 
stroke-linecap:round; stroke-linejoin:round;fill:none"
d="M 15700,40100
15500,40100
" /> 
<path style="fill:#840000; fill-opacity:0.0; 
stroke:#840000; stroke-width:60; stroke-opacity:1; 
stroke-linecap:round; stroke-linejoin:round;fill:none"
d="M 16100,40100
15900,40100
" /> 
<path style="fill:#840000; fill-opacity:0.0; 
stroke:#840000; stroke-width:60; stroke-opacity:1; 
stroke-linecap:round; stroke-linejoin:round;fill:none"
d="M 16500,40100
16300,40100
" /> 
<path d="M16000 39000
L16000 38000
" />
<path d="M16000 41000
L16000 42000
" />
</g>
<g style="fill:#008484; fill-opacity:0.0; 
stroke:#008484; stroke-width:60; stroke-opacity:1; 
stroke-linecap:round; stroke-linejoin:round;">
<text x="17570" y="39810"
textLength="540" font-size="660" lengthAdjust="spacingAndGlyphs"
text-anchor="middle" opacity="0">5</text>
<path d="M17680 39280
L17450 39280
L17420 39520
L17450 39500
L17490 39470
L17610 39470
L17660 39500
L17680 39520
L17710 39570
L17710 39690
L17680 39730
L17660 39760
L17610 39780
L17490 39780
L17450 39760
L17420 39730
" />
</g>
<g style="fill:#840084; fill-opacity:0.0; 
stroke:#840084; stroke-width:60; stroke-opacity:1; 
stroke-linecap:round; stroke-linejoin:round;">
<text x="18340" y="40720"
textLength="2080" font-size="660" lengthAdjust="spacingAndGlyphs"
text-anchor="middle" opacity="0">dc(1)</text>
<path d="M17660 40690
L17660 40190
" />
<path d="M17660 40670
L17610 40690
L17510 40690
L17470 40670
L17440 40640
L17420 40600
L17420 40450
L17440 40410
L17470 40380
L17510 40360
L17610 40360
L17660 40380
" />
<path d="M18110 40670
L18060 40690
L17970 40690
L17920 40670
L17890 40640
L17870 40600
L17870 40450
L17890 40410
L17920 40380
L17970 40360
L18060 40360
L18110 40380
" />
<path d="M18470 40880
L18440 40860
L18390 40790
L18370 40740
L18350 40670
L18320 40550
L18320 40450
L18350 40330
L18370 40260
L18390 40220
L18440 40140
L18470 40120
" />
<path d="M18920 40690
L18630 40690
" />
<path d="M18780 40690
L18780 40190
L18730 40260
L18680 40310
L18630 40330
" />
<path d="M19090 40880
L19110 40860
L19160 40790
L19180 40740
L19200 40670
L19230 40550
L19230 40450
L19200 40330
L19180 40260
L19160 40220
L19110 40140
L19090 40120
" />
</g>
</g>
<g style="fill:#840084; fill-opacity:0.0; 
stroke:#840084; stroke-width:0; stroke-opacity:1; 
stroke-linecap:round; stroke-linejoin:round;">
<g >
</g>
<g style="fill:#840000; fill-opacity:0.0; 
stroke:#840000; stroke-width:0; stroke-opacity:1; 
stroke-linecap:round; stroke-linejoin:round;">
</g>
<g style="fill:#FFFFC2; fill-opacity:0.0; 
stroke:#FFFFC2; stroke-width:0; stroke-opacity:1; 
stroke-linecap:round; stroke-linejoin:round;">
</g>
<g style="fill:#FFFFC2; fill-opacity:0.6; 
stroke:#FFFFC2; stroke-width:0; stroke-opacity:1; 
stroke-linecap:round; stroke-linejoin:round;">
<rect x="48000" y="36500" width="4000" height="4000" rx="0" />
</g>
<g style="fill:#840000; fill-opacity:0.6; 
stroke:#840000; stroke-width:0; stroke-opacity:1; 
stroke-linecap:round; stroke-linejoin:round;">
</g>
<g style="fill:#840000; fill-opacity:0.0; 
stroke:#840000; stroke-width:100; stroke-opacity:1; 
stroke-linecap:round; stroke-linejoin:round;">
<rect x="48000" y="36500" width="4000" height="4000" rx="0" />
<rect x="48000" y="36500" width="4000" height="4000" rx="0" />
</g>
<g style="fill:#840000; fill-opacity:0.0; 
stroke:#840000; stroke-width:60; stroke-opacity:1; 
stroke-linecap:round; stroke-linejoin:round;">
<path d="M50000 40500
L50000 41500
" />
</g>
<g style="fill:#008484; fill-opacity:0.0; 
stroke:#008484; stroke-width:60; stroke-opacity:1; 
stroke-linecap:round; stroke-linejoin:round;">
<g transform="rotate(-90 50000 40300)">
<text x="50000" y="40550"
textLength="1490" font-size="660" lengthAdjust="spacingAndGlyphs"
text-anchor="start" opacity="0">VCC</text>
</g>
<path d="M49720 40220
L50220 40050
L49720 39880
" />
<path d="M50170 39430
L50200 39460
L50220 39530
L50220 39570
L50200 39650
L50150 39690
L50100 39720
L50010 39740
L49940 39740
L49840 39720
L49790 39690
L49750 39650
L49720 39570
L49720 39530
L49750 39460
L49770 39430
" />
<path d="M50170 38930
L50200 38960
L50220 39030
L50220 39070
L50200 39150
L50150 39190
L50100 39220
L50010 39240
L49940 39240
L49840 39220
L49790 39190
L49750 39150
L49720 39070
L49720 39030
L49750 38960
L49770 38930
" />
</g>
<g style="fill:#840000; fill-opacity:0.0; 
stroke:#840000; stroke-width:60; stroke-opacity:1; 
stroke-linecap:round; stroke-linejoin:round;">
<g transform="rotate(-90 49900 41000)">
<text x="49900" y="41000"
textLength="540" font-size="660" lengthAdjust="spacingAndGlyphs"
text-anchor="middle" opacity="0">1</text>
</g>
<path d="M49870 40850
L49870 41140
" />
<path d="M49870 41000
L49370 41000
L49440 41040
L49490 41090
L49510 41140
" />
<path d="M48000 38500
L47000 38500
" />
</g>
<g style="fill:#008484; fill-opacity:0.0; 
stroke:#008484; stroke-width:60; stroke-opacity:1; 
stroke-linecap:round; stroke-linejoin:round;">
<text x="48200" y="38750"
textLength="820" font-size="660" lengthAdjust="spacingAndGlyphs"
text-anchor="start" opacity="0">IO</text>
<path d="M48340 38720
L48340 38220
" />
<path d="M48680 38220
L48770 38220
L48820 38250
L48870 38290
L48890 38390
L48890 38550
L48870 38650
L48820 38700
L48770 38720
L48680 38720
L48630 38700
L48580 38650
L48560 38550
L48560 38390
L48580 38290
L48630 38250
L48680 38220
" />
</g>
<g style="fill:#840000; fill-opacity:0.0; 
stroke:#840000; stroke-width:60; stroke-opacity:1; 
stroke-linecap:round; stroke-linejoin:round;">
<text x="47500" y="38400"
textLength="540" font-size="660" lengthAdjust="spacingAndGlyphs"
text-anchor="middle" opacity="0">2</text>
<path d="M47350 37920
L47380 37900
L47420 37870
L47540 37870
L47590 37900
L47610 37920
L47640 37970
L47640 38010
L47610 38090
L47330 38370
L47640 38370
" />
<path d="M50000 36500
L50000 35500
" />
</g>
<g style="fill:#008484; fill-opacity:0.0; 
stroke:#008484; stroke-width:60; stroke-opacity:1; 
stroke-linecap:round; stroke-linejoin:round;">
<g transform="rotate(-90 50000 36700)">
<text x="50000" y="36950"
textLength="1580" font-size="660" lengthAdjust="spacingAndGlyphs"
text-anchor="end" opacity="0">GND</text>
</g>
<path d="M49750 37870
L49720 37920
L49720 37990
L49750 38060
L49790 38110
L49840 38130
L49940 38150
L50010 38150
L50100 38130
L50150 38110
L50200 38060
L50220 37990
L50220 37940
L50200 37870
L50170 37840
L50010 37840
L50010 37940
" />
<path d="M50220 37630
L49720 37630
L50220 37340
L49720 37340
" />
<path d="M50220 37110
L49720 37110
L49720 36990
L49750 36920
L49790 36870
L49840 36840
L49940 36820
L50010 36820
L50100 36840
L50150 36870
L50200 36920
L50220 36990
L50220 37110
" />
</g>
<g style="fill:#840000; fill-opacity:0.0; 
stroke:#840000; stroke-width:60; stroke-opacity:1; 
stroke-linecap:round; stroke-linejoin:round;">
<g transform="rotate(-90 49900 36000)">
<text x="49900" y="36000"
textLength="540" font-size="660" lengthAdjust="spacingAndGlyphs"
text-anchor="middle" opacity="0">4</text>
</g>
<path d="M49540 35900
L49870 35900
" />
<path d="M49350 36020
L49700 36140
L49700 35830
" />
</g>
<g style="fill:#008484; fill-opacity:0.0; 
stroke:#008484; stroke-width:60; stroke-opacity:1; 
stroke-linecap:round; stroke-linejoin:round;">
<text x="53650" y="38720"
textLength="2420" font-size="660" lengthAdjust="spacingAndGlyphs"
text-anchor="middle" opacity="0">DHT11</text>
<path d="M52590 38690
L52590 38190
L52700 38190
L52780 38220
L52820 38260
L52850 38310
L52870 38410
L52870 38480
L52850 38570
L52820 38620
L52780 38670
L52700 38690
L52590 38690
" />
<path d="M53090 38690
L53090 38190
" />
<path d="M53090 38430
L53370 38430
" />
<path d="M53370 38690
L53370 38190
" />
<path d="M53540 38190
L53820 38190
" />
<path d="M53680 38690
L53680 38190
" />
<path d="M54250 38690
L53970 38690
" />
<path d="M54110 38690
L54110 38190
L54060 38260
L54010 38310
L53970 38330
" />
<path d="M54730 38690
L54440 38690
" />
<path d="M54590 38690
L54590 38190
L54540 38260
L54490 38310
L54440 38330
" />
</g>
</g>
<g style="fill:#008484; fill-opacity:0.0; 
stroke:#008484; stroke-width:0; stroke-opacity:1; 
stroke-linecap:round; stroke-linejoin:round;">
<g >
</g>
<g style="fill:#840000; fill-opacity:0.0; 
stroke:#840000; stroke-width:0; stroke-opacity:1; 
stroke-linecap:round; stroke-linejoin:round;">
</g>
<g style="fill:#840000; fill-opacity:0.0; 
stroke:#840000; stroke-width:60; stroke-opacity:1; 
stroke-linecap:round; stroke-linejoin:round;">
<rect x="30000" y="31000" width="7000" height="13000" rx="0" />
<path d="M35000 31000
L35000 28000
" />
</g>
<g style="fill:#008484; fill-opacity:0.0; 
stroke:#008484; stroke-width:60; stroke-opacity:1; 
stroke-linecap:round; stroke-linejoin:round;">
<g transform="rotate(-90 35000 31400)">
<text x="35000" y="31650"
textLength="1940" font-size="660" lengthAdjust="spacingAndGlyphs"
text-anchor="end" opacity="0">UTXD</text>
</g>
<path d="M34720 33190
L35130 33190
L35170 33160
L35200 33140
L35220 33090
L35220 33000
L35200 32950
L35170 32930
L35130 32900
L34720 32900
" />
<path d="M34720 32730
L34720 32450
" />
<path d="M35220 32590
L34720 32590
" />
<path d="M34720 32330
L35220 32000
" />
<path d="M34720 32000
L35220 32330
" />
<path d="M35220 31810
L34720 31810
L34720 31690
L34750 31620
L34790 31570
L34840 31540
L34940 31520
L35010 31520
L35100 31540
L35150 31570
L35200 31620
L35220 31690
L35220 31810
" />
</g>
<g style="fill:#840000; fill-opacity:0.0; 
stroke:#840000; stroke-width:60; stroke-opacity:1; 
stroke-linecap:round; stroke-linejoin:round;">
<g transform="rotate(-90 34900 29500)">
<text x="34900" y="29500"
textLength="540" font-size="660" lengthAdjust="spacingAndGlyphs"
text-anchor="middle" opacity="0">1</text>
</g>
<path d="M34870 29350
L34870 29640
" />
<path d="M34870 29500
L34370 29500
L34440 29540
L34490 29590
L34510 29640
" />
<path d="M35000 44000
L35000 47000
" />
</g>
<g style="fill:#008484; fill-opacity:0.0; 
stroke:#008484; stroke-width:60; stroke-opacity:1; 
stroke-linecap:round; stroke-linejoin:round;">
<g transform="rotate(-90 35000 43600)">
<text x="35000" y="43850"
textLength="1580" font-size="660" lengthAdjust="spacingAndGlyphs"
text-anchor="start" opacity="0">GND</text>
</g>
<path d="M34750 43180
L34720 43230
L34720 43300
L34750 43370
L34790 43420
L34840 43450
L34940 43470
L35010 43470
L35100 43450
L35150 43420
L35200 43370
L35220 43300
L35220 43260
L35200 43180
L35170 43160
L35010 43160
L35010 43260
" />
<path d="M35220 42950
L34720 42950
L35220 42660
L34720 42660
" />
<path d="M35220 42420
L34720 42420
L34720 42300
L34750 42230
L34790 42180
L34840 42160
L34940 42140
L35010 42140
L35100 42160
L35150 42180
L35200 42230
L35220 42300
L35220 42420
" />
</g>
<g style="fill:#840000; fill-opacity:0.0; 
stroke:#840000; stroke-width:60; stroke-opacity:1; 
stroke-linecap:round; stroke-linejoin:round;">
<g transform="rotate(-90 34900 45500)">
<text x="34900" y="45500"
textLength="540" font-size="660" lengthAdjust="spacingAndGlyphs"
text-anchor="middle" opacity="0">2</text>
</g>
<path d="M34420 45640
L34400 45610
L34370 45570
L34370 45450
L34400 45400
L34420 45380
L34470 45350
L34510 45350
L34590 45380
L34870 45660
L34870 45350
" />
<path d="M34000 31000
L34000 28000
" />
</g>
<g style="fill:#008484; fill-opacity:0.0; 
stroke:#008484; stroke-width:60; stroke-opacity:1; 
stroke-linecap:round; stroke-linejoin:round;">
<g transform="rotate(-90 34000 31400)">
<text x="34000" y="31650"
textLength="2460" font-size="660" lengthAdjust="spacingAndGlyphs"
text-anchor="end" opacity="0">CH_PD</text>
</g>
<path d="M34170 33430
L34200 33450
L34220 33520
L34220 33570
L34200 33640
L34150 33690
L34100 33710
L34010 33730
L33940 33730
L33840 33710
L33790 33690
L33750 33640
L33720 33570
L33720 33520
L33750 33450
L33770 33430
" />
<path d="M34220 33210
L33720 33210
" />
<path d="M33960 33210
L33960 32930
" />
<path d="M34220 32930
L33720 32930
" />
<path d="M34270 32810
L34270 32430
" />
<path d="M34220 32310
L33720 32310
L33720 32120
L33750 32070
L33770 32040
L33820 32020
L33890 32020
L33940 32040
L33960 32070
L33980 32120
L33980 32310
" />
<path d="M34220 31810
L33720 31810
L33720 31690
L33750 31620
L33790 31570
L33840 31540
L33940 31520
L34010 31520
L34100 31540
L34150 31570
L34200 31620
L34220 31690
L34220 31810
" />
</g>
<g style="fill:#840000; fill-opacity:0.0; 
stroke:#840000; stroke-width:60; stroke-opacity:1; 
stroke-linecap:round; stroke-linejoin:round;">
<g transform="rotate(-90 33900 29500)">
<text x="33900" y="29500"
textLength="540" font-size="660" lengthAdjust="spacingAndGlyphs"
text-anchor="middle" opacity="0">3</text>
</g>
<path d="M33370 29660
L33370 29350
L33560 29520
L33560 29450
L33590 29400
L33610 29380
L33660 29350
L33780 29350
L33820 29380
L33850 29400
L33870 29450
L33870 29590
L33850 29640
L33820 29660
" />
<path d="M34000 44000
L34000 47000
" />
</g>
<g style="fill:#008484; fill-opacity:0.0; 
stroke:#008484; stroke-width:60; stroke-opacity:1; 
stroke-linecap:round; stroke-linejoin:round;">
<g transform="rotate(-90 34000 43600)">
<text x="34000" y="43850"
textLength="2300" font-size="660" lengthAdjust="spacingAndGlyphs"
text-anchor="start" opacity="0">GPIO2</text>
</g>
<path d="M33750 43180
L33720 43230
L33720 43300
L33750 43370
L33790 43420
L33840 43450
L33940 43470
L34010 43470
L34100 43450
L34150 43420
L34200 43370
L34220 43300
L34220 43260
L34200 43180
L34170 43160
L34010 43160
L34010 43260
" />
<path d="M34220 42950
L33720 42950
L33720 42760
L33750 42710
L33770 42680
L33820 42660
L33890 42660
L33940 42680
L33960 42710
L33980 42760
L33980 42950
" />
<path d="M34220 42450
L33720 42450
" />
<path d="M33720 42110
L33720 42020
L33750 41970
L33790 41920
L33890 41900
L34050 41900
L34150 41920
L34200 41970
L34220 42020
L34220 42110
L34200 42160
L34150 42210
L34050 42230
L33890 42230
L33790 42210
L33750 42160
L33720 42110
" />
<path d="M33770 41710
L33750 41680
L33720 41640
L33720 41520
L33750 41470
L33770 41450
L33820 41420
L33860 41420
L33940 41450
L34220 41730
L34220 41420
" />
</g>
<g style="fill:#840000; fill-opacity:0.0; 
stroke:#840000; stroke-width:60; stroke-opacity:1; 
stroke-linecap:round; stroke-linejoin:round;">
<g transform="rotate(-90 33900 45500)">
<text x="33900" y="45500"
textLength="540" font-size="660" lengthAdjust="spacingAndGlyphs"
text-anchor="middle" opacity="0">4</text>
</g>
<path d="M33540 45400
L33870 45400
" />
<path d="M33350 45520
L33700 45640
L33700 45330
" />
<path d="M33000 31000
L33000 28000
" />
</g>
<g style="fill:#008484; fill-opacity:0.0; 
stroke:#008484; stroke-width:60; stroke-opacity:1; 
stroke-linecap:round; stroke-linejoin:round;">
<g transform="rotate(-90 33000 31400)">
<text x="33000" y="31650"
textLength="1420" font-size="660" lengthAdjust="spacingAndGlyphs"
text-anchor="end" opacity="0">RST</text>
</g>
<path d="M33220 32380
L32980 32540
" />
<path d="M33220 32660
L32720 32660
L32720 32470
L32750 32430
L32770 32400
L32820 32380
L32890 32380
L32940 32400
L32960 32430
L32980 32470
L32980 32660
" />
<path d="M33200 32190
L33220 32120
L33220 32000
L33200 31950
L33170 31930
L33130 31900
L33080 31900
L33030 31930
L33010 31950
L32980 32000
L32960 32090
L32940 32140
L32910 32160
L32860 32190
L32820 32190
L32770 32160
L32750 32140
L32720 32090
L32720 31970
L32750 31900
" />
<path d="M32720 31760
L32720 31470
" />
<path d="M33220 31620
L32720 31620
" />
</g>
<g style="fill:#840000; fill-opacity:0.0; 
stroke:#840000; stroke-width:60; stroke-opacity:1; 
stroke-linecap:round; stroke-linejoin:round;">
<g transform="rotate(-90 32900 29500)">
<text x="32900" y="29500"
textLength="540" font-size="660" lengthAdjust="spacingAndGlyphs"
text-anchor="middle" opacity="0">5</text>
</g>
<path d="M32370 29380
L32370 29610
L32610 29640
L32590 29610
L32560 29570
L32560 29450
L32590 29400
L32610 29380
L32660 29350
L32780 29350
L32820 29380
L32850 29400
L32870 29450
L32870 29570
L32850 29610
L32820 29640
" />
<path d="M33000 44000
L33000 47000
" />
</g>
<g style="fill:#008484; fill-opacity:0.0; 
stroke:#008484; stroke-width:60; stroke-opacity:1; 
stroke-linecap:round; stroke-linejoin:round;">
<g transform="rotate(-90 33000 43600)">
<text x="33000" y="43850"
textLength="2300" font-size="660" lengthAdjust="spacingAndGlyphs"
text-anchor="start" opacity="0">GPIO0</text>
</g>
<path d="M32750 43180
L32720 43230
L32720 43300
L32750 43370
L32790 43420
L32840 43450
L32940 43470
L33010 43470
L33100 43450
L33150 43420
L33200 43370
L33220 43300
L33220 43260
L33200 43180
L33170 43160
L33010 43160
L33010 43260
" />
<path d="M33220 42950
L32720 42950
L32720 42760
L32750 42710
L32770 42680
L32820 42660
L32890 42660
L32940 42680
L32960 42710
L32980 42760
L32980 42950
" />
<path d="M33220 42450
L32720 42450
" />
<path d="M32720 42110
L32720 42020
L32750 41970
L32790 41920
L32890 41900
L33050 41900
L33150 41920
L33200 41970
L33220 42020
L33220 42110
L33200 42160
L33150 42210
L33050 42230
L32890 42230
L32790 42210
L32750 42160
L32720 42110
" />
<path d="M32720 41590
L32720 41540
L32750 41490
L32770 41470
L32820 41450
L32910 41420
L33030 41420
L33130 41450
L33170 41470
L33200 41490
L33220 41540
L33220 41590
L33200 41640
L33170 41660
L33130 41680
L33030 41710
L32910 41710
L32820 41680
L32770 41660
L32750 41640
L32720 41590
" />
</g>
<g style="fill:#840000; fill-opacity:0.0; 
stroke:#840000; stroke-width:60; stroke-opacity:1; 
stroke-linecap:round; stroke-linejoin:round;">
<g transform="rotate(-90 32900 45500)">
<text x="32900" y="45500"
textLength="540" font-size="660" lengthAdjust="spacingAndGlyphs"
text-anchor="middle" opacity="0">6</text>
</g>
<path d="M32370 45400
L32370 45500
L32400 45540
L32420 45570
L32490 45610
L32590 45640
L32780 45640
L32820 45610
L32850 45590
L32870 45540
L32870 45450
L32850 45400
L32820 45380
L32780 45350
L32660 45350
L32610 45380
L32590 45400
L32560 45450
L32560 45540
L32590 45590
L32610 45610
L32660 45640
" />
<path d="M32000 31000
L32000 28000
" />
</g>
<g style="fill:#008484; fill-opacity:0.0; 
stroke:#008484; stroke-width:60; stroke-opacity:1; 
stroke-linecap:round; stroke-linejoin:round;">
<g transform="rotate(-90 32000 31400)">
<text x="32000" y="31650"
textLength="1490" font-size="660" lengthAdjust="spacingAndGlyphs"
text-anchor="end" opacity="0">VCC</text>
</g>
<path d="M31720 32810
L32220 32640
L31720 32470
" />
<path d="M32170 32020
L32200 32040
L32220 32120
L32220 32160
L32200 32230
L32150 32280
L32100 32310
L32010 32330
L31940 32330
L31840 32310
L31790 32280
L31750 32230
L31720 32160
L31720 32120
L31750 32040
L31770 32020
" />
<path d="M32170 31520
L32200 31540
L32220 31620
L32220 31660
L32200 31730
L32150 31780
L32100 31810
L32010 31830
L31940 31830
L31840 31810
L31790 31780
L31750 31730
L31720 31660
L31720 31620
L31750 31540
L31770 31520
" />
</g>
<g style="fill:#840000; fill-opacity:0.0; 
stroke:#840000; stroke-width:60; stroke-opacity:1; 
stroke-linecap:round; stroke-linejoin:round;">
<g transform="rotate(-90 31900 29500)">
<text x="31900" y="29500"
textLength="540" font-size="660" lengthAdjust="spacingAndGlyphs"
text-anchor="middle" opacity="0">7</text>
</g>
<path d="M31370 29660
L31370 29330
L31870 29540
" />
<path d="M32000 44000
L32000 47000
" />
</g>
<g style="fill:#008484; fill-opacity:0.0; 
stroke:#008484; stroke-width:60; stroke-opacity:1; 
stroke-linecap:round; stroke-linejoin:round;">
<g transform="rotate(-90 32000 43600)">
<text x="32000" y="43850"
textLength="2060" font-size="660" lengthAdjust="spacingAndGlyphs"
text-anchor="start" opacity="0">URXD</text>
</g>
<path d="M31720 43450
L32130 43450
L32170 43420
L32200 43400
L32220 43350
L32220 43260
L32200 43210
L32170 43180
L32130 43160
L31720 43160
" />
<path d="M32220 42640
L31980 42800
" />
<path d="M32220 42920
L31720 42920
L31720 42730
L31750 42680
L31770 42660
L31820 42640
L31890 42640
L31940 42660
L31960 42680
L31980 42730
L31980 42920
" />
<path d="M31720 42470
L32220 42140
" />
<path d="M31720 42140
L32220 42470
" />
<path d="M32220 41950
L31720 41950
L31720 41830
L31750 41760
L31790 41710
L31840 41680
L31940 41660
L32010 41660
L32100 41680
L32150 41710
L32200 41760
L32220 41830
L32220 41950
" />
</g>
<g style="fill:#840000; fill-opacity:0.0; 
stroke:#840000; stroke-width:60; stroke-opacity:1; 
stroke-linecap:round; stroke-linejoin:round;">
<g transform="rotate(-90 31900 45500)">
<text x="31900" y="45500"
textLength="540" font-size="660" lengthAdjust="spacingAndGlyphs"
text-anchor="middle" opacity="0">8</text>
</g>
<path d="M31590 45540
L31560 45590
L31540 45610
L31490 45640
L31470 45640
L31420 45610
L31400 45590
L31370 45540
L31370 45450
L31400 45400
L31420 45380
L31470 45350
L31490 45350
L31540 45380
L31560 45400
L31590 45450
L31590 45540
L31610 45590
L31630 45610
L31680 45640
L31780 45640
L31820 45610
L31850 45590
L31870 45540
L31870 45450
L31850 45400
L31820 45380
L31780 45350
L31680 45350
L31630 45380
L31610 45400
L31590 45450
" />
</g>
<g style="fill:#008484; fill-opacity:0.0; 
stroke:#008484; stroke-width:60; stroke-opacity:1; 
stroke-linecap:round; stroke-linejoin:round;">
<text x="39760" y="38220"
textLength="4960" font-size="660" lengthAdjust="spacingAndGlyphs"
text-anchor="middle" opacity="0">ESP8266-01</text>
<path d="M37420 37930
L37590 37930
" />
<path d="M37660 38190
L37420 38190
L37420 37690
L37660 37690
" />
<path d="M37850 38170
L37920 38190
L38040 38190
L38090 38170
L38110 38140
L38140 38100
L38140 38050
L38110 38000
L38090 37980
L38040 37950
L37950 37930
L37900 37910
L37870 37880
L37850 37830
L37850 37790
L37870 37740
L37900 37720
L37950 37690
L38060 37690
L38140 37720
" />
<path d="M38350 38190
L38350 37690
L38540 37690
L38590 37720
L38610 37740
L38640 37790
L38640 37860
L38610 37910
L38590 37930
L38540 37950
L38350 37950
" />
<path d="M38920 37910
L38870 37880
L38850 37860
L38830 37810
L38830 37790
L38850 37740
L38870 37720
L38920 37690
L39020 37690
L39060 37720
L39090 37740
L39110 37790
L39110 37810
L39090 37860
L39060 37880
L39020 37910
L38920 37910
L38870 37930
L38850 37950
L38830 38000
L38830 38100
L38850 38140
L38870 38170
L38920 38190
L39020 38190
L39060 38170
L39090 38140
L39110 38100
L39110 38000
L39090 37950
L39060 37930
L39020 37910
" />
<path d="M39300 37740
L39330 37720
L39370 37690
L39490 37690
L39540 37720
L39560 37740
L39590 37790
L39590 37830
L39560 37910
L39280 38190
L39590 38190
" />
<path d="M40020 37690
L39920 37690
L39870 37720
L39850 37740
L39800 37810
L39780 37910
L39780 38100
L39800 38140
L39830 38170
L39870 38190
L39970 38190
L40020 38170
L40040 38140
L40060 38100
L40060 37980
L40040 37930
L40020 37910
L39970 37880
L39870 37880
L39830 37910
L39800 37930
L39780 37980
" />
<path d="M40490 37690
L40400 37690
L40350 37720
L40330 37740
L40280 37810
L40260 37910
L40260 38100
L40280 38140
L40300 38170
L40350 38190
L40450 38190
L40490 38170
L40520 38140
L40540 38100
L40540 37980
L40520 37930
L40490 37910
L40450 37880
L40350 37880
L40300 37910
L40280 37930
L40260 37980
" />
<path d="M40760 38000
L41140 38000
" />
<path d="M41470 37690
L41520 37690
L41560 37720
L41590 37740
L41610 37790
L41640 37880
L41640 38000
L41610 38100
L41590 38140
L41560 38170
L41520 38190
L41470 38190
L41420 38170
L41400 38140
L41370 38100
L41350 38000
L41350 37880
L41370 37790
L41400 37740
L41420 37720
L41470 37690
" />
<path d="M42110 38190
L41830 38190
" />
<path d="M41970 38190
L41970 37690
L41920 37760
L41870 37810
L41830 37830
" />
</g>
</g>
<g style="fill:#008484; fill-opacity:0.0; 
stroke:#008484; stroke-width:0; stroke-opacity:1; 
stroke-linecap:round; stroke-linejoin:round;">
<g >
</g>
<g style="fill:#840000; fill-opacity:0.0; 
stroke:#840000; stroke-width:0; stroke-opacity:1; 
stroke-linecap:round; stroke-linejoin:round;">
</g>
<g style="fill:#FFFFC2; fill-opacity:0.0; 
stroke:#FFFFC2; stroke-width:0; stroke-opacity:1; 
stroke-linecap:round; stroke-linejoin:round;">
</g>
<g style="fill:#FFFFC2; fill-opacity:0.6; 
stroke:#FFFFC2; stroke-width:0; stroke-opacity:1; 
stroke-linecap:round; stroke-linejoin:round;">
<rect x="23000" y="36250" width="4000" height="2750" rx="0" />
</g>
<g style="fill:#840000; fill-opacity:0.6; 
stroke:#840000; stroke-width:0; stroke-opacity:1; 
stroke-linecap:round; stroke-linejoin:round;">
</g>
<g style="fill:#840000; fill-opacity:0.0; 
stroke:#840000; stroke-width:100; stroke-opacity:1; 
stroke-linecap:round; stroke-linejoin:round;">
<rect x="23000" y="36250" width="4000" height="2750" rx="0" />
<rect x="23000" y="36250" width="4000" height="2750" rx="0" />
</g>
<g style="fill:#840000; fill-opacity:0.0; 
stroke:#840000; stroke-width:60; stroke-opacity:1; 
stroke-linecap:round; stroke-linejoin:round;">
<path d="M25000 39000
L25000 40000
" />
</g>
<g style="fill:#008484; fill-opacity:0.0; 
stroke:#008484; stroke-width:60; stroke-opacity:1; 
stroke-linecap:round; stroke-linejoin:round;">
<g transform="rotate(-90 25000 38700)">
<text x="25000" y="38950"
textLength="1370" font-size="660" lengthAdjust="spacingAndGlyphs"
text-anchor="start" opacity="0">ADJ</text>
</g>
<path d="M25080 38570
L25080 38330
" />
<path d="M25220 38620
L24720 38450
L25220 38280
" />
<path d="M25220 38120
L24720 38120
L24720 38000
L24750 37930
L24790 37880
L24840 37860
L24940 37830
L25010 37830
L25100 37860
L25150 37880
L25200 37930
L25220 38000
L25220 38120
" />
<path d="M24720 37470
L25080 37470
L25150 37500
L25200 37550
L25220 37620
L25220 37670
" />
</g>
<g style="fill:#840000; fill-opacity:0.0; 
stroke:#840000; stroke-width:60; stroke-opacity:1; 
stroke-linecap:round; stroke-linejoin:round;">
<g transform="rotate(-90 24900 39500)">
<text x="24900" y="39500"
textLength="540" font-size="660" lengthAdjust="spacingAndGlyphs"
text-anchor="middle" opacity="0">1</text>
</g>
<path d="M24870 39350
L24870 39640
" />
<path d="M24870 39500
L24370 39500
L24440 39540
L24490 39590
L24510 39640
" />
<path d="M27000 37000
L28000 37000
" />
</g>
<g style="fill:#008484; fill-opacity:0.0; 
stroke:#008484; stroke-width:60; stroke-opacity:1; 
stroke-linecap:round; stroke-linejoin:round;">
<text x="26700" y="37250"
textLength="1010" font-size="660" lengthAdjust="spacingAndGlyphs"
text-anchor="end" opacity="0">VO</text>
<path d="M25760 36720
L25930 37220
L26090 36720
" />
<path d="M26360 36720
L26450 36720
L26500 36750
L26550 36790
L26570 36890
L26570 37050
L26550 37150
L26500 37200
L26450 37220
L26360 37220
L26310 37200
L26260 37150
L26240 37050
L26240 36890
L26260 36790
L26310 36750
L26360 36720
" />
</g>
<g style="fill:#840000; fill-opacity:0.0; 
stroke:#840000; stroke-width:60; stroke-opacity:1; 
stroke-linecap:round; stroke-linejoin:round;">
<text x="27500" y="36900"
textLength="540" font-size="660" lengthAdjust="spacingAndGlyphs"
text-anchor="middle" opacity="0">2</text>
<path d="M27350 36420
L27380 36400
L27420 36370
L27540 36370
L27590 36400
L27610 36420
L27640 36470
L27640 36510
L27610 36590
L27330 36870
L27640 36870
" />
<path d="M23000 37000
L22000 37000
" />
</g>
<g style="fill:#008484; fill-opacity:0.0; 
stroke:#008484; stroke-width:60; stroke-opacity:1; 
stroke-linecap:round; stroke-linejoin:round;">
<text x="23300" y="37250"
textLength="730" font-size="660" lengthAdjust="spacingAndGlyphs"
text-anchor="start" opacity="0">VI</text>
<path d="M23370 36720
L23540 37220
L23710 36720
" />
<path d="M23870 37220
L23870 36720
" />
</g>
<g style="fill:#840000; fill-opacity:0.0; 
stroke:#840000; stroke-width:60; stroke-opacity:1; 
stroke-linecap:round; stroke-linejoin:round;">
<text x="22500" y="36900"
textLength="540" font-size="660" lengthAdjust="spacingAndGlyphs"
text-anchor="middle" opacity="0">3</text>
<path d="M22330 36370
L22640 36370
L22470 36560
L22540 36560
L22590 36590
L22610 36610
L22640 36660
L22640 36780
L22610 36820
L22590 36850
L22540 36870
L22400 36870
L22350 36850
L22330 36820
" />
</g>
<g style="fill:#008484; fill-opacity:0.0; 
stroke:#008484; stroke-width:60; stroke-opacity:1; 
stroke-linecap:round; stroke-linejoin:round;">
<text x="25000" y="35760"
textLength="3440" font-size="660" lengthAdjust="spacingAndGlyphs"
text-anchor="middle" opacity="0">AMS1117</text>
<path d="M23400 35590
L23640 35590
" />
<path d="M23350 35730
L23520 35230
L23690 35730
" />
<path d="M23850 35730
L23850 35230
L24020 35590
L24190 35230
L24190 35730
" />
<path d="M24400 35710
L24470 35730
L24590 35730
L24640 35710
L24660 35680
L24690 35640
L24690 35590
L24660 35540
L24640 35520
L24590 35490
L24500 35470
L24450 35450
L24420 35420
L24400 35370
L24400 35330
L24420 35280
L24450 35260
L24500 35230
L24610 35230
L24690 35260
" />
<path d="M25160 35730
L24880 35730
" />
<path d="M25020 35730
L25020 35230
L24970 35300
L24920 35350
L24880 35370
" />
<path d="M25640 35730
L25350 35730
" />
<path d="M25500 35730
L25500 35230
L25450 35300
L25400 35350
L25350 35370
" />
<path d="M26110 35730
L25830 35730
" />
<path d="M25970 35730
L25970 35230
L25920 35300
L25880 35350
L25830 35370
" />
<path d="M26280 35230
L26610 35230
L26400 35730
" />
</g>
</g>
<g style="fill:#008484; fill-opacity:0.0; 
stroke:#008484; stroke-width:0; stroke-opacity:1; 
stroke-linecap:round; stroke-linejoin:round;">
<g >
</g>
<g style="fill:#840000; fill-opacity:0.0; 
stroke:#840000; stroke-width:0; stroke-opacity:1; 
stroke-linecap:round; stroke-linejoin:round;">
</g>
<g style="fill:#840000; fill-opacity:0.0; 
stroke:#840000; stroke-width:80; stroke-opacity:1; 
stroke-linecap:round; stroke-linejoin:round;">
<rect x="44200" y="34800" width="600" height="1400" rx="0" />
</g>
<g style="fill:#840000; fill-opacity:0.0; 
stroke:#840000; stroke-width:60; stroke-opacity:1; 
stroke-linecap:round; stroke-linejoin:round;">
<path d="M44500 36200
L44500 36500
" />
<path d="M44500 34800
L44500 34500
" />
</g>
<g style="fill:#008484; fill-opacity:0.0; 
stroke:#008484; stroke-width:60; stroke-opacity:1; 
stroke-linecap:round; stroke-linejoin:round;">
<text x="43200" y="35720"
textLength="1420" font-size="660" lengthAdjust="spacingAndGlyphs"
text-anchor="middle" opacity="0">10k</text>
<path d="M42900 35690
L42610 35690
" />
<path d="M42750 35690
L42750 35190
L42710 35260
L42660 35310
L42610 35330
" />
<path d="M43210 35190
L43250 35190
L43300 35220
L43330 35240
L43350 35290
L43370 35380
L43370 35500
L43350 35600
L43330 35640
L43300 35670
L43250 35690
L43210 35690
L43160 35670
L43140 35640
L43110 35600
L43090 35500
L43090 35380
L43110 35290
L43140 35240
L43160 35220
L43210 35190
" />
<path d="M43590 35690
L43590 35190
" />
<path d="M43640 35500
L43780 35690
" />
<path d="M43780 35360
L43590 35550
" />
</g>
</g>
<g style="fill:#008484; fill-opacity:0.0; 
stroke:#008484; stroke-width:60; stroke-opacity:1; 
stroke-linecap:round; stroke-linejoin:round;">
</g>
<g style="fill:#008400; fill-opacity:0.0; 
stroke:#008400; stroke-width:60; stroke-opacity:1; 
stroke-linecap:round; stroke-linejoin:round;">
<path d="M50000 32500
L50000 35500
" />
<path d="M44500 32500
L50000 32500
" />
<path d="M44500 34500
L44500 32500
" />
<path d="M44500 38500
L44500 36500
" />
<path d="M47000 38500
L44500 38500
" />
<path d="M50000 26000
L50000 32500
" />
<path d="M50000 41500
L50000 52500
" />
<path d="M35000 52500
L50000 52500
" />
<path d="M32000 26000
L50000 26000
" />
<path d="M33000 49000
L33000 47000
" />
<path d="M44500 38500
L44500 49000
" />
<path d="M32000 28000
L32000 26000
" />
<path d="M28000 26000
L32000 26000
" />
<path d="M28000 37000
L28000 26000
" />
<path d="M35000 52500
L25000 52500
" />
<path d="M44500 49000
L33000 49000
" />
<path d="M35000 47000
L35000 52500
" />
<path d="M25000 52500
L25000 42000
" />
<path d="M25000 42000
L16000 42000
" />
<path d="M25000 40000
L25000 42000
" />
<path d="M16000 37000
L22000 37000
" />
<path d="M16000 38000
L16000 37000
" />
</g>
<g style="fill:#008400; fill-opacity:0.0; 
stroke:#008400; stroke-width:0; stroke-opacity:1; 
stroke-linecap:round; stroke-linejoin:round;">
</g>
<g style="fill:#008400; fill-opacity:1.0; 
stroke:#008400; stroke-width:100; stroke-opacity:1; 
stroke-linecap:round; stroke-linejoin:round;">
<circle cx="44500" cy="38500" r="200" /> 
</g>
<g style="fill:#008400; fill-opacity:1.0; 
stroke:#008400; stroke-width:0; stroke-opacity:1; 
stroke-linecap:round; stroke-linejoin:round;">
</g>
<g style="fill:#008400; fill-opacity:1.0; 
stroke:#008400; stroke-width:100; stroke-opacity:1; 
stroke-linecap:round; stroke-linejoin:round;">
<circle cx="50000" cy="32500" r="200" /> 
</g>
<g style="fill:#008400; fill-opacity:1.0; 
stroke:#008400; stroke-width:0; stroke-opacity:1; 
stroke-linecap:round; stroke-linejoin:round;">
</g>
<g style="fill:#008400; fill-opacity:1.0; 
stroke:#008400; stroke-width:100; stroke-opacity:1; 
stroke-linecap:round; stroke-linejoin:round;">
<circle cx="32000" cy="26000" r="200" /> 
</g>
<g style="fill:#008400; fill-opacity:1.0; 
stroke:#008400; stroke-width:0; stroke-opacity:1; 
stroke-linecap:round; stroke-linejoin:round;">
</g>
<g style="fill:#008400; fill-opacity:1.0; 
stroke:#008400; stroke-width:100; stroke-opacity:1; 
stroke-linecap:round; stroke-linejoin:round;">
<circle cx="35000" cy="52500" r="200" /> 
</g>
<g style="fill:#008400; fill-opacity:1.0; 
stroke:#008400; stroke-width:0; stroke-opacity:1; 
stroke-linecap:round; stroke-linejoin:round;">
</g>
<g style="fill:#008400; fill-opacity:1.0; 
stroke:#008400; stroke-width:100; stroke-opacity:1; 
stroke-linecap:round; stroke-linejoin:round;">
<circle cx="25000" cy="42000" r="200" /> 
</g> 
</svg>
